<svg xmlns="http://www.w3.org/2000/svg" width="512" height="512" viewBox="0 0 512 512">
  <rect width="512" height="512" rx="64" fill="#0A0908"/>
  <circle cx="256" cy="256" r="192" fill="url(#g)"/>
  <defs>
    <linearGradient id="g" x1="0%" y1="0%" x2="100%" y2="100%">
      <stop offset="0%" stop-color="#FF6A00"/>
      <stop offset="100%" stop-color="#FFC400"/>
    </linearGradient>
  </defs>
  <path d="M210 140v156c-10-6-22-10-35-10-38 0-69 31-69 69s31 69 69 69 69-31 69-69V240h69V140H210z" fill="#0A0908"/>
  <path d="M210 140v156c-10-6-22-10-35-10-38 0-69 31-69 69s31 69 69 69 69-31 69-69V240h69V140H210z" fill="white" opacity="0.9"/>
</svg>
